<?xml version="1.0" encoding="UTF-8" standalone="no"?>
<!-- Created with Inkscape (http://www.inkscape.org/) -->

<svg
   xmlns:osb="http://www.openswatchbook.org/uri/2009/osb"
   xmlns:dc="http://purl.org/dc/elements/1.1/"
   xmlns:cc="http://creativecommons.org/ns#"
   xmlns:rdf="http://www.w3.org/1999/02/22-rdf-syntax-ns#"
   xmlns:svg="http://www.w3.org/2000/svg"
   xmlns="http://www.w3.org/2000/svg"
   xmlns:sodipodi="http://sodipodi.sourceforge.net/DTD/sodipodi-0.dtd"
   xmlns:inkscape="http://www.inkscape.org/namespaces/inkscape"
   version="1.1"
   id="svg2"
   width="50"
   height="32"
   viewBox="0 0 50 32"
   sodipodi:docname="slogan-plain-dark.svg"
   inkscape:version="0.92.1 r15371"
   style="enable-background:new"
   inkscape:export-filename="/media/ntrrg/NtFlash/Work/Vultur/Imágenes/Eslóganes/slogan-plain-dark-111111-625x400.png"
   inkscape:export-xdpi="1200"
   inkscape:export-ydpi="1200">
  <metadata
     id="metadata8">
    <rdf:RDF>
      <cc:Work
         rdf:about="">
        <dc:format>image/svg+xml</dc:format>
        <dc:type
           rdf:resource="http://purl.org/dc/dcmitype/StillImage" />
        <dc:title />
      </cc:Work>
    </rdf:RDF>
  </metadata>
  <defs
     id="defs6">
    <linearGradient
       id="linearGradient4663"
       osb:paint="solid">
      <stop
         style="stop-color:#003d67;stop-opacity:1;"
         offset="0"
         id="stop4661" />
    </linearGradient>
  </defs>
  <sodipodi:namedview
     pagecolor="#ffffff"
     bordercolor="#666666"
     borderopacity="1"
     objecttolerance="10"
     gridtolerance="10"
     guidetolerance="10"
     inkscape:pageopacity="0"
     inkscape:pageshadow="2"
     inkscape:window-width="1280"
     inkscape:window-height="968"
     id="namedview4"
     showgrid="false"
     inkscape:zoom="11.313709"
     inkscape:cx="23.466277"
     inkscape:cy="11.083049"
     inkscape:window-x="0"
     inkscape:window-y="30"
     inkscape:window-maximized="1"
     inkscape:current-layer="layer1"
     fit-margin-top="0"
     fit-margin-left="0"
     fit-margin-right="0"
     fit-margin-bottom="0"
     inkscape:snap-grids="true" />
  <g
     inkscape:groupmode="layer"
     id="layer12"
     inkscape:label="Background"
     style="display:inline">
    <rect
       style="fill:#111111;fill-opacity:1;stroke-width:1.24513626"
       id="rect4618"
       width="50"
       height="32"
       x="0"
       y="-4.4408921e-16"
       inkscape:export-xdpi="1500"
       inkscape:export-ydpi="1500" />
  </g>
  <g
     inkscape:groupmode="layer"
     id="layer7"
     inkscape:label="Figure"
     transform="translate(0,-2.2519989)">
    <g
       inkscape:groupmode="layer"
       id="layer2"
       inkscape:label="Slogan">
      <path
         style="fill:#ffffff;stroke-width:0.02417997;enable-background:new;fill-opacity:0.8392157"
         d="m 33.036151,28.856155 c -1.57e-4,-0.289253 -0.0069,-0.550397 -0.0149,-0.580319 -0.0134,-0.04997 -0.0065,-0.05441 0.08496,-0.05441 0.08342,0 0.09954,0.0078 0.09954,0.04836 0,0.06161 0.01972,0.06098 0.08761,-0.0028 0.03284,-0.03084 0.09969,-0.05626 0.168388,-0.064 0.223394,-0.02518 0.36985,0.120996 0.38944,0.388698 0.0187,0.255511 -0.117002,0.445513 -0.334383,0.46819 -0.07471,0.0078 -0.132015,-0.0028 -0.196202,-0.03632 l -0.09067,-0.04733 v 0.202923 0.202923 h -0.09672 -0.09672 l -3.15e-4,-0.525915 z m 0.531674,-0.0055 c 0.06238,-0.06238 0.08204,-0.146793 0.06644,-0.285215 -0.01509,-0.133908 -0.081,-0.199 -0.201496,-0.199 -0.09287,0 -0.169132,0.06239 -0.193128,0.157995 -0.02796,0.111351 0.0049,0.283581 0.0631,0.330695 0.07165,0.05802 0.204839,0.05576 0.265082,-0.0045 z m -5.188097,0.194208 c -0.135379,-0.03237 -0.147882,-0.05023 -0.108188,-0.154641 0.02197,-0.05776 0.02566,-0.05862 0.114856,-0.02681 0.253485,0.09041 0.465471,-0.02886 0.369623,-0.207946 -0.01362,-0.02547 -0.104007,-0.08292 -0.20083,-0.127655 -0.218322,-0.100869 -0.282161,-0.175673 -0.282161,-0.330625 0,-0.134644 0.06269,-0.230046 0.184633,-0.280999 0.0919,-0.0384 0.33971,-0.04423 0.429456,-0.01008 0.05586,0.02123 0.0589,0.02953 0.03549,0.09672 -0.02873,0.08239 -0.02255,0.08036 -0.152394,0.05025 -0.12785,-0.02965 -0.226394,-0.0066 -0.27253,0.06385 -0.0628,0.09586 -0.01128,0.16518 0.19216,0.258542 0.188639,0.08657 0.241466,0.131923 0.284021,0.243855 0.107257,0.282107 -0.218422,0.515392 -0.594124,0.425575 z m 0.980477,-0.03161 c -0.288032,-0.145247 -0.288032,-0.616423 0,-0.761669 0.223105,-0.112506 0.471899,-0.04227 0.575196,0.162392 0.198326,0.392931 -0.187417,0.794823 -0.575196,0.599277 z m 0.294719,-0.116801 c 0.02684,-0.01437 0.06421,-0.06299 0.08304,-0.108033 0.10505,-0.251422 -0.06182,-0.52674 -0.253911,-0.418922 -0.09377,0.05263 -0.126112,0.135329 -0.116083,0.296794 0.0074,0.119484 0.0196,0.151918 0.0749,0.199485 0.07198,0.06192 0.1363,0.07122 0.212057,0.03067 z m 0.79049,0.115216 c -0.08387,-0.05731 -0.08907,-0.05805 -0.100499,-0.01431 -0.0091,0.03458 -0.03381,0.04611 -0.09896,0.04611 h -0.0869 V 28.438969 27.83447 h 0.10881 0.108809 v 0.246015 0.246015 l 0.05966,-0.05605 c 0.04019,-0.03776 0.09887,-0.05982 0.179803,-0.0676 0.231312,-0.02222 0.376382,0.139511 0.374446,0.41746 -0.0019,0.261594 -0.126306,0.420838 -0.344976,0.441303 -0.09032,0.0084 -0.128735,-0.0011 -0.200206,-0.04996 z m 0.268377,-0.172214 c 0.117662,-0.125246 0.08575,-0.401701 -0.05313,-0.460088 -0.168683,-0.07093 -0.28398,0.03358 -0.28398,0.257412 0,0.1195 0.0098,0.152643 0.05936,0.202269 0.07991,0.07991 0.202892,0.0801 0.277754,4.1e-4 z m 1.235086,0.173799 c -0.144159,-0.07366 -0.199508,-0.1568 -0.213042,-0.320007 -0.02295,-0.276854 0.122265,-0.471453 0.365417,-0.489664 0.229671,-0.0172 0.37909,0.125466 0.37909,0.361964 v 0.115233 h -0.278069 c -0.160106,0 -0.278069,0.0098 -0.278069,0.02305 0,0.01268 0.01208,0.04956 0.02684,0.08197 0.04833,0.10607 0.165474,0.140082 0.384207,0.111553 0.08031,-0.01047 0.08463,-0.0073 0.08463,0.06126 0,0.06077 -0.01157,0.07478 -0.07253,0.08781 -0.153989,0.03293 -0.291522,0.02148 -0.398476,-0.03317 z m 0.338025,-0.530055 c 0,-0.109552 -0.128573,-0.173592 -0.252804,-0.125919 -0.03398,0.01305 -0.109894,0.12711 -0.109894,0.165129 0,0.0073 0.08161,0.01328 0.181349,0.01328 0.169998,0 0.181349,-0.0033 0.181349,-0.0525 z m 1.774811,0.502248 c -0.105453,-0.105451 -0.111545,-0.217736 -0.01786,-0.329074 0.07441,-0.08843 0.142677,-0.119726 0.30846,-0.141397 0.135624,-0.01773 0.159688,-0.05128 0.08812,-0.122845 -0.05516,-0.05516 -0.174528,-0.06563 -0.282046,-0.02476 -0.07121,0.02708 -0.105252,0.002 -0.105974,-0.07839 -7.96e-4,-0.08442 0.325262,-0.123143 0.467709,-0.05555 0.129705,0.06155 0.146775,0.112392 0.160338,0.477609 l 0.01235,0.332521 -0.09067,-4.6e-5 c -0.06446,-3.4e-5 -0.09067,-0.01054 -0.09067,-0.03632 0,-0.04671 -0.0073,-0.04585 -0.102186,0.012 -0.125356,0.07642 -0.249425,0.06439 -0.347567,-0.03376 z m 0.366216,-0.12222 c 0.04147,-0.04147 0.05935,-0.0861 0.05935,-0.148169 v -0.08882 l -0.102135,0.01633 c -0.124685,0.01994 -0.188026,0.07316 -0.188026,0.158019 0,0.129944 0.128602,0.164844 0.230809,0.06264 z m 0.522517,0.176784 c -0.07254,-0.02088 -0.07919,-0.03 -0.06453,-0.08844 0.02169,-0.0864 0.01791,-0.08489 0.128778,-0.05167 0.117867,0.03531 0.213675,0.01498 0.234203,-0.04969 0.02176,-0.06854 -9.6e-5,-0.09221 -0.143915,-0.155811 -0.149774,-0.06624 -0.206643,-0.136762 -0.206643,-0.256264 0,-0.130358 0.10554,-0.221709 0.27149,-0.234987 0.07012,-0.0057 0.156985,0.0012 0.193049,0.01515 0.06051,0.0234 0.0636,0.03099 0.04007,0.09849 -0.02131,0.06111 -0.03282,0.06922 -0.07002,0.04931 -0.06121,-0.03276 -0.177018,-0.02993 -0.212131,0.0051 -0.06204,0.06204 -0.03125,0.115688 0.09968,0.173587 0.152598,0.06748 0.234007,0.161035 0.234007,0.268905 0,0.194469 -0.240082,0.302233 -0.504033,0.226242 z m 0.782103,0.0047 c -0.157267,-0.06436 -0.198422,-0.28099 -0.07738,-0.407325 0.0745,-0.07775 0.204648,-0.125955 0.340123,-0.125955 0.101651,0 0.116123,-0.04429 0.03951,-0.120899 -0.05349,-0.05349 -0.174281,-0.06365 -0.279849,-0.02351 -0.0761,0.02894 -0.07425,0.02993 -0.09452,-0.05084 -0.01406,-0.05605 -0.0063,-0.06495 0.07943,-0.09062 0.210758,-0.06315 0.433883,-0.01224 0.49899,0.113825 0.021,0.04065 0.03572,0.177662 0.04125,0.383629 l 0.0086,0.320395 -0.09067,-1.1e-5 c -0.06448,-6e-6 -0.09067,-0.01048 -0.09067,-0.03628 0,-0.04671 -0.0073,-0.04586 -0.102176,0.012 -0.08191,0.04994 -0.18864,0.05996 -0.272609,0.02559 z m 0.286898,-0.172336 c 0.05012,-0.03942 0.06372,-0.07103 0.06372,-0.14817 v -0.09805 l -0.102135,0.01633 c -0.124685,0.01994 -0.188027,0.07317 -0.188027,0.158021 0,0.125525 0.112748,0.16131 0.226449,0.07188 z m 1.64499,0.160633 c -0.126718,-0.05517 -0.189414,-0.170144 -0.198638,-0.364301 -0.0067,-0.141318 0.0014,-0.186963 0.0488,-0.275629 0.07485,-0.139948 0.187023,-0.20227 0.339992,-0.188911 0.06462,0.0057 0.1362,0.02915 0.163216,0.05359 0.04772,0.04319 0.04811,0.04162 0.04811,-0.189913 V 27.83447 h 0.108809 0.108811 v 0.604498 0.6045 h -0.09672 c -0.08885,0 -0.09671,-0.0052 -0.09671,-0.06501 v -0.065 l -0.05069,0.0544 c -0.09413,0.101034 -0.236022,0.125724 -0.374976,0.06524 z m 0.342127,-0.194048 c 0.04981,-0.04981 0.05936,-0.08265 0.05936,-0.204181 0,-0.117016 -0.01087,-0.157474 -0.05663,-0.21066 -0.106778,-0.124135 -0.273741,-0.07184 -0.331742,0.103901 -0.08403,0.254598 0.157293,0.48266 0.329013,0.31094 z m 0.670487,0.177997 c -0.148435,-0.07347 -0.212167,-0.189011 -0.212167,-0.384626 0,-0.121715 0.01248,-0.177237 0.05531,-0.24613 0.101158,-0.162677 0.356009,-0.235112 0.546773,-0.155405 0.20874,0.08722 0.297591,0.395078 0.178323,0.617879 -0.106915,0.199728 -0.355811,0.273436 -0.568245,0.168282 z m 0.323137,-0.151659 c 0.05729,-0.04928 0.06789,-0.07926 0.07665,-0.21672 0.0097,-0.15157 0.0065,-0.163192 -0.06329,-0.232967 -0.154993,-0.154995 -0.343138,-0.03616 -0.343138,0.21672 0,0.241196 0.175811,0.365399 0.329772,0.232967 z m 1.498698,0.17726 c -0.09107,-0.02726 -0.182255,-0.112886 -0.223619,-0.209966 -0.04275,-0.100335 -0.04248,-0.300399 4.73e-4,-0.40338 0.08403,-0.201094 0.362779,-0.290313 0.579406,-0.185445 0.121838,0.05898 0.168794,0.11832 0.207563,0.262299 0.09355,0.34745 -0.214957,0.64097 -0.563898,0.536492 z m 0.26967,-0.16848 c 0.118981,-0.110847 0.12827,-0.349763 0.01821,-0.468513 -0.161298,-0.174042 -0.398228,0.05913 -0.327392,0.322189 0.04577,0.169995 0.203597,0.244686 0.309175,0.146324 z m 0.51907,0.166371 c -0.07037,-0.02031 -0.07717,-0.02983 -0.06309,-0.08849 0.0208,-0.08677 0.01156,-0.08341 0.137128,-0.04982 0.08616,0.02305 0.124519,0.02316 0.174164,5.5e-4 0.106124,-0.04836 0.07222,-0.124959 -0.09325,-0.210628 -0.164816,-0.08533 -0.209088,-0.136667 -0.209088,-0.242423 0,-0.160791 0.156566,-0.266872 0.364402,-0.246902 0.141546,0.0136 0.171351,0.03509 0.151885,0.109528 -0.01294,0.04953 -0.02418,0.05268 -0.139072,0.03918 -0.100273,-0.01179 -0.131716,-0.0066 -0.159023,0.02632 -0.04931,0.05942 -0.0087,0.109546 0.151448,0.186974 0.152577,0.07377 0.1865,0.120189 0.1865,0.25524 0,0.19325 -0.236493,0.29712 -0.502005,0.220482 z m 4.016731,0.0032 c -0.107061,-0.04313 -0.129532,-0.113315 -0.129532,-0.404482 V 28.36655 h -0.06046 c -0.05072,0 -0.06046,-0.0114 -0.06046,-0.07086 0,-0.05507 0.01213,-0.07258 0.05441,-0.07858 0.0434,-0.0062 0.05684,-0.02709 0.0665,-0.103465 0.0097,-0.07654 0.02422,-0.09909 0.07254,-0.112445 0.115318,-0.03187 0.1209,-0.02728 0.1209,0.09938 v 0.1209 h 0.09672 c 0.09134,0 0.09672,0.004 0.09672,0.07254 0,0.06851 -0.0055,0.07254 -0.09672,0.07254 h -0.09672 v 0.21921 c 0,0.257191 0.02163,0.312749 0.121751,0.312749 0.06294,0 0.07169,0.0085 0.07169,0.06995 0,0.09589 -0.119629,0.130907 -0.257347,0.07533 z m 0.635022,-0.001 c -0.227475,-0.06811 -0.328346,-0.380813 -0.202371,-0.627354 0.07071,-0.138397 0.155877,-0.198004 0.30309,-0.212149 0.234363,-0.02252 0.392085,0.125458 0.392085,0.367861 v 0.109774 h -0.278071 c -0.26411,0 -0.278069,0.0025 -0.278069,0.04952 0,0.06722 0.105276,0.160025 0.200271,0.176562 0.04279,0.0075 0.124887,0.0044 0.182438,-0.0067 0.111133,-0.02144 0.137975,-0.0021 0.120776,0.08726 -0.01329,0.06905 -0.281509,0.10267 -0.440149,0.05517 z m 0.299365,-0.549928 c 0,-0.190934 -0.295137,-0.200564 -0.350137,-0.01143 -0.01542,0.05303 -0.01116,0.05441 0.167157,0.05441 0.159224,0 0.18298,-0.0056 0.18298,-0.04299 z m 0.414805,0.547292 c -0.07254,-0.02089 -0.07919,-0.03 -0.06453,-0.08844 0.009,-0.03585 0.01945,-0.06825 0.02323,-0.07203 0.0038,-0.0038 0.0566,0.0065 0.117366,0.02268 0.08616,0.02305 0.124521,0.02316 0.174165,5.5e-4 0.104662,-0.04769 0.07247,-0.12582 -0.08224,-0.199567 -0.16224,-0.07734 -0.2201,-0.146311 -0.2201,-0.262368 0,-0.133239 0.103996,-0.224287 0.27149,-0.237689 0.07012,-0.0057 0.156986,0.0012 0.193049,0.01515 0.06052,0.0234 0.0636,0.03099 0.04007,0.09849 -0.02131,0.06111 -0.03282,0.06922 -0.07002,0.04931 -0.06121,-0.03276 -0.177017,-0.02993 -0.212131,0.0051 -0.06434,0.06434 -0.03076,0.115302 0.124224,0.188527 0.160617,0.07589 0.20946,0.137434 0.20946,0.263933 0,0.184639 -0.246514,0.290415 -0.504034,0.216275 z M 31.174624,28.632491 v -0.411059 h 0.08462 c 0.06595,0 0.08463,0.0098 0.08463,0.04432 0,0.07377 0.02299,0.07404 0.09594,0.0011 0.04067,-0.04067 0.0955,-0.06959 0.131906,-0.06959 0.05658,0 0.06232,0.009 0.06232,0.09672 0,0.08751 -0.0059,0.09672 -0.06155,0.09672 -0.03385,0 -0.08826,0.02671 -0.1209,0.05936 -0.05585,0.05585 -0.05936,0.07511 -0.05936,0.326429 V 29.04357 H 31.283421 31.17461 Z m 5.343773,0 v -0.411059 h 0.08463 c 0.06851,0 0.08462,0.0092 0.08462,0.04836 0,0.06161 0.01972,0.06098 0.08761,-0.0028 0.07271,-0.06831 0.244027,-0.08704 0.34036,-0.03723 0.122365,0.06327 0.152348,0.163483 0.152348,0.509147 v 0.30464 h -0.0947 -0.0947 l -0.008,-0.287698 c -0.0088,-0.314941 -0.03912,-0.389341 -0.158487,-0.389341 -0.155194,0 -0.200194,0.09865 -0.200194,0.438848 v 0.238191 h -0.09671 -0.09672 z m 3.312654,-0.193441 v -0.604503 h 0.108811 0.108811 v 0.6045 0.604499 h -0.108811 -0.108811 z m 2.514718,0 v -0.604503 h 0.09672 0.09672 v 0.6045 0.604499 h -0.09672 -0.09672 z m 0.435238,0.193441 v -0.411059 h 0.108811 0.10881 v 0.411059 0.411059 h -0.10881 -0.108811 z m 0.43524,0 v -0.411059 h 0.0869 c 0.06729,0 0.08982,0.01118 0.09987,0.04962 0.01282,0.04906 0.01363,0.04899 0.07222,-0.0061 0.04705,-0.04421 0.0867,-0.05566 0.192583,-0.05566 0.117118,0 0.139912,0.0082 0.187421,0.06783 0.0489,0.06132 0.05721,0.06407 0.08662,0.02862 0.08674,-0.104521 0.281642,-0.140705 0.381423,-0.07082 0.105072,0.0736 0.126143,0.155951 0.126143,0.493021 v 0.31554 h -0.09672 -0.09672 v -0.284779 c 0,-0.32027 -0.02589,-0.39254 -0.140404,-0.391889 -0.142284,7.95e-4 -0.173935,0.07525 -0.173935,0.4091 v 0.267568 h -0.09671 -0.09672 v -0.252279 c 0,-0.248874 -0.02391,-0.37 -0.0801,-0.405726 -0.05211,-0.03314 -0.136759,-0.01976 -0.185882,0.02936 -0.04299,0.04299 -0.04836,0.0806 -0.04836,0.33852 v 0.290158 h -0.108813 -0.10881 z m 1.474978,0 v -0.411059 h 0.10881 0.10881 v 0.411059 0.411059 h -0.10881 -0.10881 z m -1.886036,-0.545789 c 0,-0.0076 0.02824,-0.06201 0.06275,-0.1209 0.05747,-0.09806 0.07081,-0.10707 0.15854,-0.10707 0.08827,0 0.09331,0.0035 0.0642,0.04434 -0.0981,0.137678 -0.165763,0.19746 -0.223475,0.19746 -0.03411,0 -0.06201,-0.0062 -0.06201,-0.01383 z m 1.902157,-0.02647 c -0.02967,-0.02967 -0.01654,-0.146872 0.01984,-0.177059 0.09133,-0.0758 0.233024,0.06589 0.157224,0.157223 -0.03019,0.03637 -0.147391,0.0495 -0.177059,0.01984 z"
         id="path4504"
         inkscape:connector-curvature="0" />
    </g>
    <g
       inkscape:groupmode="layer"
       id="layer6"
       inkscape:label="Text"
       style="display:inline">
      <g
         id="g49"
         transform="matrix(1.0369411,0,0,1.0369411,0.27626358,-0.48750353)"
         style="fill:#ffffff;fill-opacity:0.8392157">
        <path
           inkscape:connector-curvature="0"
           id="path14"
           d="m 15.430459,25.452692 c -0.622272,-0.0322 -0.829119,-0.146803 -1.030155,-0.570724 -0.15915,-0.3356 -0.216556,-0.54453 -0.879769,-3.201978 -0.309357,-1.239563 -0.754714,-3.011302 -0.989685,-3.937197 -0.615001,-2.423385 -0.80724,-3.197436 -0.818212,-3.294534 -0.02529,-0.223822 0.04803,-0.244734 0.691581,-0.197262 0.213705,0.01577 0.505552,0.03273 0.648551,0.03771 0.142995,0.0051 0.265279,0.01271 0.271741,0.01721 0.03046,0.02117 0.07415,0.104028 0.131094,0.248656 0.196543,0.499201 0.493503,1.669501 1.143767,4.507504 0.441173,1.925463 0.642293,2.774451 0.812236,3.428727 0.26216,1.0093 0.417935,1.427803 0.511135,1.37321 0.01278,-0.0075 0.0554,-0.07771 0.09469,-0.156031 0.13455,-0.268188 0.304534,-0.756555 0.940132,-2.701026 0.503699,-1.540957 0.85173,-2.588831 1.102388,-3.319119 1.413334,-4.117749 2.476754,-6.485952 3.300535,-7.350178 0.215875,-0.226475 0.362132,-0.318084 0.639022,-0.400257 0.37996,-0.112762 0.676143,-0.13331 1.470435,-0.102018 0.742428,0.02926 1.046707,0.01762 1.515848,-0.05793 0.158867,-0.02559 0.182517,-0.01948 0.270125,0.06979 0.04683,0.04771 0.06252,0.07687 0.07839,0.145492 0.0109,0.04721 0.01485,0.09066 0.0089,0.09658 -0.01514,0.01474 -0.41032,0.06302 -0.71878,0.08779 -0.368107,0.02958 -0.743651,0.04636 -1.243686,0.05561 -0.518659,0.0096 -0.687271,0.02298 -0.868788,0.06893 -0.377429,0.09555 -0.685097,0.350039 -0.986518,0.815988 -0.264072,0.408213 -0.74546,1.750832 -1.461413,4.075951 -0.738781,2.399263 -1.8844,6.411285 -2.222995,7.785065 -0.38753,1.57232 -0.405144,1.635535 -0.526476,1.889581 -0.173402,0.363064 -0.393231,0.511049 -0.846235,0.569663 -0.158438,0.02051 -0.761461,0.0291 -1.037739,0.01481 z"
           style="display:inline;fill:#ffffff;fill-opacity:0.8392157;stroke-width:0.0137424" />
        <path
           sodipodi:nodetypes="ccccccccccccccccscccccccccccccccccccccccccccccccccccccccccccccccccsccccccccccccscccccccsccccscsccccccscccccccccccccccccccccccccscccccccsccccccccscc"
           inkscape:connector-curvature="0"
           id="path27"
           d="m 22.528524,25.411209 c -0.581147,-0.05395 -1.057383,-0.1996 -1.392859,-0.425975 -0.484931,-0.327234 -0.792207,-0.93475 -0.89761,-1.774673 -0.03724,-0.296698 -0.04873,-0.615174 -0.05685,-1.577081 -0.0065,-0.776268 0.0134,-3.43018 0.0259,-3.440125 0.0019,-0.0015 0.322084,-0.007 0.711609,-0.01214 l 0.708224,-0.0094 0.0092,1.05104 c 0.01926,2.194619 0.04651,3.491806 0.07697,3.661376 0.08124,0.452457 0.398591,0.826619 0.82568,0.973465 0.129126,0.04439 0.137948,0.04555 0.349991,0.04494 0.260538,-5.04e-4 0.360987,-0.02307 0.573233,-0.127687 0.296064,-0.145933 0.518126,-0.4293 0.62345,-0.795568 0.0522,-0.181546 0.05927,-0.432015 0.05119,-1.814622 -0.0098,-1.679083 0.0026,-1.88543 0.130032,-2.166525 0.143705,-0.316934 0.420228,-0.557033 0.797673,-0.692588 0.112018,-0.0402 0.339512,-0.09149 0.40603,-0.09149 h 0.04651 l 0.0096,0.140151 c 0.01461,0.214575 -0.0019,4.228533 -0.01904,4.557094 -0.01763,0.343479 -0.03336,0.480791 -0.07834,0.684985 -0.086,0.390493 -0.271023,0.776169 -0.517603,1.078944 -0.176265,0.216443 -0.441317,0.425763 -0.648148,0.511868 -0.197901,0.0824 -0.5011,0.154414 -0.837508,0.198965 -0.16328,0.02161 -0.755828,0.0381 -0.897307,0.025 z m 14.856247,-0.0051 c -0.537756,-0.05203 -1.013935,-0.199715 -1.333751,-0.41367 -0.389111,-0.26032 -0.663274,-0.688451 -0.811327,-1.266995 -0.108082,-0.422342 -0.132077,-0.689121 -0.149078,-1.657196 -0.01059,-0.605596 0.0046,-3.866145 0.01798,-3.876011 0.0015,-10e-4 0.322218,-0.0061 0.712925,-0.0113 l 0.710363,-0.0094 1.26e-4,0.174159 c 4.29e-4,0.968362 0.04812,4.011188 0.06793,4.334455 0.02006,0.326698 0.100908,0.553795 0.27617,0.775439 0.279387,0.353322 0.713564,0.516724 1.151989,0.433557 0.443188,-0.08407 0.766716,-0.362544 0.925567,-0.796666 0.08934,-0.244145 0.08529,-0.15393 0.08676,-1.928298 10e-4,-1.212206 0.0057,-1.644312 0.01855,-1.745342 0.06624,-0.51727 0.337531,-0.874129 0.81885,-1.077119 0.138401,-0.05837 0.33732,-0.111341 0.461431,-0.122873 l 0.09226,-0.0086 0.0046,1.113276 c 0.0058,1.379136 -0.0094,3.306134 -0.02913,3.669232 -0.02838,0.524016 -0.104778,0.841082 -0.293453,1.217969 -0.11936,0.238432 -0.250425,0.421425 -0.433543,0.605325 -0.257739,0.258839 -0.452916,0.37335 -0.782839,0.459324 -0.374225,0.09753 -0.625645,0.130003 -1.06015,0.136948 -0.183199,0.003 -0.386734,1.3e-4 -0.452302,-0.0062 z m -10.89133,-0.458984 c -0.0051,-0.252367 -0.01566,-1.691624 -0.02415,-3.198346 -0.01662,-2.955274 -0.009,-5.860889 0.01572,-6.043205 0.04796,-0.352788 0.210554,-0.679649 0.457598,-0.92001 0.190741,-0.185583 0.528213,-0.391466 0.786198,-0.479641 l 0.09516,-0.03255 0.0082,1.497835 c 0.0046,0.823808 0.0092,3.328636 0.01012,5.566291 l 0.0019,4.068454 h -0.671089 -0.671093 z m 5.755877,0.395987 c -0.529573,-0.06749 -0.873247,-0.285186 -1.070483,-0.678092 -0.104269,-0.207693 -0.195156,-0.554547 -0.226798,-0.865494 -0.02771,-0.272161 -0.04863,-0.76929 -0.04863,-1.15684 v -0.309298 l -0.220928,-2.56e-4 c -0.36601,-4.34e-4 -0.584998,-0.03926 -0.808703,-0.143322 -0.21001,-0.09771 -0.331582,-0.207361 -0.429747,-0.387617 -0.08326,-0.152881 -0.112781,-0.274469 -0.138796,-0.57157 l -0.0079,-0.08991 -0.104482,-0.05253 c -0.140503,-0.07065 -0.317039,-0.24478 -0.380732,-0.375548 -0.201016,-0.412698 -0.02606,-0.93773 0.379009,-1.137417 0.525618,-0.259111 1.138738,0.03382 1.25567,0.599942 0.07193,0.348215 -0.0529,0.646103 -0.361325,0.862214 l -0.106599,0.0747 v 0.08478 c 0,0.171223 0.06787,0.302625 0.193543,0.374708 0.133827,0.07675 0.196486,0.08882 0.461316,0.08886 0.132105,9e-6 0.244771,-0.0046 0.250364,-0.01012 0.0098,-0.0098 -0.01341,-4.207783 -0.02338,-4.217553 -0.0026,-0.0026 -0.09391,-0.01002 -0.202658,-0.01627 l -0.19774,-0.01143 0.422961,-0.754549 c 0.232628,-0.415004 0.427792,-0.754553 0.433704,-0.754553 0.0059,0 0.210759,0.339549 0.455219,0.754553 l 0.444476,0.754549 -0.197801,0.0085 c -0.1088,0.0046 -0.199332,0.0092 -0.201203,0.01012 -0.0019,0.001 -0.0035,0.723677 -0.0035,1.606029 v 1.604271 h 0.0879 c 0.213986,0 0.538109,-0.06874 0.70925,-0.150418 0.300861,-0.14359 0.470108,-0.414532 0.443192,-0.709497 l -0.0059,-0.06458 h -0.197972 -0.197972 l 0.009,-0.51206 c 0.0051,-0.281627 0.009,-0.623538 0.009,-0.759794 v -0.247762 l 0.39087,-0.0082 c 0.214983,-0.0046 0.545354,-0.01144 0.734162,-0.01531 l 0.343286,-0.0073 v 0.77514 0.775136 h -0.19506 -0.195055 l -0.0083,0.146251 c -0.02277,0.397869 -0.157461,0.680701 -0.443791,0.931862 -0.279088,0.24481 -0.736826,0.428373 -1.231039,0.493673 -0.08973,0.01185 -0.182301,0.02415 -0.205715,0.0273 l -0.04257,0.0058 -0.01002,0.750839 c -0.0055,0.412959 -0.007,0.93438 -0.003,1.158705 0.0061,0.369793 0.0098,0.422458 0.04086,0.564214 0.0704,0.322763 0.175046,0.545022 0.334881,0.711261 0.184918,0.192328 0.403096,0.270413 0.755878,0.270519 0.188732,0 0.345594,-0.03573 0.521033,-0.118822 0.16564,-0.07846 0.211103,-0.07958 0.329622,-0.0081 0.113303,0.06836 0.119147,0.09756 0.03729,0.186402 -0.184674,0.200484 -0.652919,0.413722 -1.073476,0.488878 -0.116493,0.0208 -0.416064,0.03567 -0.501051,0.02484 z m 9.190567,-0.04645 c 0,-0.0078 -0.02796,-1.1136 -0.06218,-2.457389 -0.03422,-1.343787 -0.05852,-2.500265 -0.05405,-2.56995 0.03054,-0.474482 0.221417,-1.043653 0.456826,-1.362244 0.203052,-0.274802 0.35345,-0.397749 0.612308,-0.500582 0.336504,-0.133672 1.00335,-0.19695 1.761643,-0.167161 0.602667,0.02369 0.710487,0.03391 0.802514,0.07601 0.21203,0.09708 0.399386,0.409389 0.475736,0.793039 0.03331,0.167247 0.03351,0.468726 4.23e-4,0.529679 -0.01327,0.0243 -0.0325,0.04419 -0.04282,0.04419 -0.01045,0 -0.07597,-0.01512 -0.145802,-0.0336 -0.297027,-0.0786 -0.684173,-0.108631 -1.133039,-0.08788 -0.43198,0.01995 -0.60426,0.04237 -0.783474,0.101798 -0.134364,0.04455 -0.244106,0.111074 -0.342182,0.207394 -0.144402,0.141819 -0.215315,0.288785 -0.27022,0.560034 l -0.03165,0.156348 0.0015,2.362219 0.0015,2.362217 h -0.62338 c -0.422338,0 -0.623266,-0.0046 -0.623266,-0.01415 z"
           style="fill:#ffffff;stroke-width:0.01359551;fill-opacity:0.8392157" />
      </g>
    </g>
    <g
       inkscape:groupmode="layer"
       id="layer1"
       inkscape:label="Condor"
       style="display:inline"
       transform="translate(-865.9201,108.32601)">
      <g
         id="g12"
         transform="matrix(0.04453142,0,0,0.04453142,864.29829,-107.82053)"
         style="fill:#003d67;fill-opacity:1">
        <path
           style="fill:#003d67;fill-opacity:1;stroke-width:0.31999999"
           d="m 405.12003,730.41334 c -82.05727,-4.3691 -156.87697,-38.4675 -217.59313,-99.1662 -7.15364,-7.15155 -14.78334,-15.29232 -18.59006,-19.83526 -4.87049,-5.81242 -13.99886,-18.44167 -19.08184,-26.4 -5.26821,-8.24836 -12.12341,-20.55472 -11.87127,-21.31117 0.065,-0.19495 1.68784,1.85632 3.60634,4.55837 5.94771,8.3768 9.10741,12.34614 19.19449,24.1128 16.08981,18.76889 30.37698,32.71926 47.53545,46.41484 43.28796,34.55172 94.16809,57.13892 149.12,66.19892 36.22578,5.9726 73.05346,6.0363 108.96002,0.1887 41.71856,-6.7943 81.26109,-21.2181 118.24,-43.1302 14.76154,-8.74708 25.43981,-16.161 43.91856,-30.49268 7.6866,-5.96154 9.04916,-6.89645 11.5961,-7.95677 6.41722,-2.67149 12.08157,-1.74 15.02554,2.47098 1.23152,1.76153 1.50432,4.85552 0.65945,7.47945 -2.39238,7.43008 -10.84307,16.75293 -24.31965,26.82947 -29.5943,22.12795 -60.90089,39.02245 -94.5152,51.00465 -30.66029,10.9291 -62.33315,17.2596 -95.4048,19.0685 -6.84045,0.3741 -29.20308,0.353 -36.48,-0.034 z m -14.88,-42.7135 c -11.05799,-0.6562 -14.29741,-0.8905 -19.71882,-1.4263 -49.16465,-4.8594 -95.95368,-20.3129 -138.3612,-45.69799 -26.96852,-16.14329 -51.49893,-36.0919 -73.24428,-59.56367 -13.55852,-14.63498 -18.23502,-20.55028 -28.84022,-36.48 -9.07134,-13.62573 -12.26899,-19.3713 -17.99612,-32.33539 -3.60428,-8.15879 -3.14777,-7.76784 3.09943,2.65408 6.52342,10.88275 18.9606,28.41676 25.83202,36.41814 9.10689,10.60448 25.04822,26.23229 38.03072,37.28275 20.58138,17.51853 41.30803,31.36371 64.63845,43.17776 21.91616,11.09789 43.07994,18.91126 67.2,24.80931 18.74944,4.58477 36.11591,7.24781 58.56001,8.98001 7.03773,0.5431 36.08868,0.7462 45.20212,0.3159 42.15731,-1.9901 73.17962,-9.40663 109.19789,-26.10583 2.2,-1.01997 6.232,-2.78326 8.96,-3.9184 2.728,-1.13514 6.112,-2.54602 7.52,-3.13533 5.30935,-2.22221 10.0504,-2.89779 13.45658,-1.9175 2.50441,0.72077 5.13849,3.30563 6.23341,6.11693 1.09059,2.80022 1.06198,6.39232 -0.0703,8.8336 -0.93978,2.0262 -2.94534,4.36108 -4.89232,5.69561 -3.39078,2.32416 -13.5847,7.50352 -20.96733,10.65312 -35.10003,14.9744 -66.53411,22.4565 -105.92,25.2116 -4.77031,0.3336 -33.96951,0.666 -37.92,0.4316 z m -20.96001,-43.65683 c -43.61863,-2.38698 -84.55934,-11.33555 -120.55562,-26.35034 -19.54731,-8.15356 -36.36747,-17.43423 -55.70038,-30.73308 -56.22113,-38.67379 -86.7535,-79.1047 -96.199812,-127.38771 -1.75637,-8.97734 -3.79132,-23.8665 -4.8765,-35.68 -0.72069,-7.84554 -0.82319,-30.37075 -0.16892,-37.12 2.24288,-23.1368 7.85893,-42.62736 18.348892,-63.68 7.65553,-15.36416 15.13493,-26.91738 28.79574,-44.48 10.26294,-13.19425 17.81696,-22.0683 27.47526,-32.27642 40.71977,-43.03786 93.09289,-73.67802 157.12133,-91.92161 42.02104,-11.97303 82.98706,-17.74722 121.60002,-17.13961 26.18054,0.41198 46.98448,3.0524 70.24,8.91482 23.9376,6.03435 43.84647,14.14723 68.03527,27.72439 7.29437,4.09432 12.22486,6.26992 21.06633,9.29559 5.28119,1.80728 5.38602,1.86197 15.06829,7.85927 12.59658,7.80246 17.5833,11.06416 18.67466,12.21461 2.21053,2.33027 4.03037,7.4349 4.78077,13.40999 0.21123,1.68184 0.52592,3.07471 0.69936,3.09527 0.53753,0.0637 3.58784,-6.12168 4.76976,-9.67209 2.83888,-8.52774 2.69097,-16.33978 -0.45821,-24.20454 -5.07539,-12.6752 -19.10621,-25.11611 -38.3816,-34.03243 -2.54397,-1.17678 -4.67197,-2.27932 -4.7289,-2.4501 -0.0569,-0.17078 0.51248,-0.4927 1.26538,-0.71538 2.96806,-0.87785 6.43737,-2.99873 8.92438,-5.45569 2.9144,-2.87923 4.25283,-5.1145 4.95943,-8.28259 1.01939,-4.57059 0.0355,-7.30607 -3.71492,-10.32902 -3.0847,-2.48635 -9.7608,-5.12435 -17.6,-6.95451 -9.86179,-2.30236 -12.2983,-3.15246 -19.86109,-6.9296 -6.41392,-3.20334 -12.06556,-6.56254 -26.48931,-15.744487 -13.09993,-8.33926 -20.35405,-12.64334 -25.3296,-15.02886 -12.83754,-6.15493 -20.24874,-6.7264 -27.27165,-2.10287 -7.86739,5.17947 -12.33571,14.62632 -13.43587,28.405867 -0.19674,2.464 -0.46406,4.60285 -0.59411,4.75301 -0.13002,0.15016 -2.44634,-0.0267 -5.1474,-0.39298 -23.09507,-3.13198 -48.23728,-3.89831 -69.07097,-2.10528 -35.83809,3.08436 -67.31144,12.69761 -93.56576,28.5788 -11.6921,7.07253 -23.4952,16.44169 -29.63426,23.52332 -1.83255,2.11392 -2.34648,2.50217 -4.32,3.26361 -8.18582,3.15828 -14.62436,5.74601 -18.08,7.26655 -12.28549,5.40583 -23.14817,11.46415 -31.15289,17.37452 -1.7831,1.31657 -3.29347,2.23938 -3.35637,2.05069 -0.2304,-0.69121 6.75178,-11.22477 12.61555,-19.03224 24.6246,-32.78713 56.02115,-55.48773 93.73371,-67.77213 15.36509,-5.004997 33.32513,-8.603797 52.96002,-10.612047 18.46572,-1.88868 50.15344,-1.1825 77.76,1.73291 4.2383,0.44759 5.68992,0.50141 5.96973,0.22133 0.20336,-0.20353 0.82547,-1.80733 1.38246,-3.56399 1.63235,-5.14809 3.16883,-9.04586 5.0481,-12.80607 4.77846,-9.56121 9.11341,-13.24407 18.31971,-15.56404 6.9665,-1.75553 12.40653,-1.3912 20.40426,1.36654 9.39974,3.24117 20.37779,9.21909 35.11574,19.12173 4.048,2.71991 11.03664,7.41665 15.53034,10.43722 12.22112,8.214767 20.28003,12.876287 26.30205,15.213897 1.45619,0.56525 5.31161,1.56894 8.56761,2.23042 3.256,0.66147 7.18535,1.66633 8.73191,2.23302 6.82825,2.50203 11.54985,7.2612 12.74841,12.84981 0.8712,4.06233 -0.49814,12.57775 -2.69043,16.73053 -0.56352,1.06747 -1.92579,2.87141 -3.02723,4.00875 -1.10147,1.13734 -2.00266,2.10595 -2.00266,2.15248 0,0.0465 1.764,0.94719 3.92,2.00146 8.32736,4.07202 13.95258,7.97453 19.62637,13.6158 7.70493,7.66076 11.81082,15.42215 13.45741,25.43858 0.65594,3.99003 0.42391,12.04198 -0.46579,16.1638 -1.87078,8.66716 -5.90272,16.46948 -11.53411,22.32 -2.83671,2.94709 -3.69053,3.35022 -4.20877,1.98715 -0.23501,-0.61812 -1.65343,-14.31463 -2.2351,-15.08885 -7.13114,-9.49175 0,0 -7.13114,-9.49175 -0.0647,-0.19418 -2.81901,-1.75827 -6.12061,-3.47575 -3.3016,-1.71748 -7.61059,-4.23318 -9.57558,-5.59045 -6.56269,-4.53307 -7.07642,-4.83735 -10.45268,-6.19109 -1.848,-0.74096 -6.744,-2.46716 -10.88,-3.83599 -5.98534,-1.98088 -9.25056,-3.30371 -16,-6.48207 -14.03949,-6.61127 -26.24848,-11.77446 -39.48144,-16.69672 -18.70736,-6.95855 -38.65386,-10.79626 -64.83856,-12.47493 -19.82688,-1.27107 -38.62179,-1.4067 -49.6,-0.35792 -48.26279,4.61069 -104.87614,21.0732 -149.81669,43.56498 -36.1698,18.10221 -70.72326,45.82374 -98.70287,79.18731 -15.08293,17.98526 -27.91529,37.19947 -37.71128,56.46605 -12.39729,24.38275 -18.05291,43.75213 -19.71501,67.52 -0.46435,6.64013 -0.21324,20.66192 0.49572,27.68 2.61056,25.84259 11.42841,54.90262 21.96347,72.38265 7.78625,12.91914 17.84955,25.2593 32.57625,39.94675 18.74842,18.69847 32.81189,29.57466 53.47039,41.35216 25.36522,14.46084 54.83371,26.24346 83.84,33.52244 12.94528,3.24857 24.58048,4.93209 43.52,6.29695 6.44625,0.46458 12.13505,0.56628 32.00002,0.57204 24.07708,0.007 31.0256,-0.19408 45.28,-1.31028 10.28838,-0.8056 12.77805,-0.88179 14.93705,-0.45702 6.29805,1.23907 9.21735,5.61798 8.2728,12.40912 -0.4534,3.25981 -1.58195,5.26685 -3.93792,7.0032 -4.43008,3.26499 -10.68963,4.49936 -27.43193,5.4095 -5.016,0.27268 -10.776,0.64423 -12.8,0.82567 -4.77805,0.42832 -33.90314,0.62909 -40.32001,0.27795 z M 574.33635,147.11434 c -2.40809,-0.76997 -4.24182,-2.14941 -6.09593,-4.5857 -2.75655,-3.62209 -4.5249,-9.41033 -3.4745,-11.373 1.26042,-2.35513 7.41462,-1.07405 15.39411,3.20449 3.35347,1.7981 10.24202,6.01618 12.45965,7.62943 l 1.41965,1.03275 -0.82694,0.71131 c -1.08048,0.92938 -5.10871,2.59517 -8.1674,3.37745 -3.19821,0.81796 -8.156,0.81948 -10.70864,0.003 z"
           id="path24"
           inkscape:connector-curvature="0"
           sodipodi:nodetypes="ccccccsssccsccscccccccsscccccsscccsccccsccccccssssssssssscscccccscccccsccsccccssccsscssssccccsssccccccsssccssccsccssssssssscsssccsccccsscccscccccscc" />
      </g>
    </g>
  </g>
</svg>
