<?xml version="1.0" encoding="UTF-8" standalone="no"?>
<!-- Created with Inkscape (http://www.inkscape.org/) -->

<svg
   xmlns:osb="http://www.openswatchbook.org/uri/2009/osb"
   xmlns:dc="http://purl.org/dc/elements/1.1/"
   xmlns:cc="http://creativecommons.org/ns#"
   xmlns:rdf="http://www.w3.org/1999/02/22-rdf-syntax-ns#"
   xmlns:svg="http://www.w3.org/2000/svg"
   xmlns="http://www.w3.org/2000/svg"
   xmlns:sodipodi="http://sodipodi.sourceforge.net/DTD/sodipodi-0.dtd"
   xmlns:inkscape="http://www.inkscape.org/namespaces/inkscape"
   version="1.1"
   id="svg2"
   width="32"
   height="32"
   viewBox="0 0 32 32"
   sodipodi:docname="logo-plain-light.svg"
   inkscape:version="0.92.1 r15371"
   style="enable-background:new"
   inkscape:export-filename="/media/ntrrg/NtFlash/Work/Vultur/Imágenes/Logos/logo-plain-light-500x500.png"
   inkscape:export-xdpi="1500"
   inkscape:export-ydpi="1500">
  <metadata
     id="metadata8">
    <rdf:RDF>
      <cc:Work
         rdf:about="">
        <dc:format>image/svg+xml</dc:format>
        <dc:type
           rdf:resource="http://purl.org/dc/dcmitype/StillImage" />
        <dc:title />
      </cc:Work>
    </rdf:RDF>
  </metadata>
  <defs
     id="defs6">
    <linearGradient
       id="linearGradient4663"
       osb:paint="solid">
      <stop
         style="stop-color:#003d67;stop-opacity:1;"
         offset="0"
         id="stop4661" />
    </linearGradient>
  </defs>
  <sodipodi:namedview
     pagecolor="#ffffff"
     bordercolor="#666666"
     borderopacity="1"
     objecttolerance="10"
     gridtolerance="10"
     guidetolerance="10"
     inkscape:pageopacity="0"
     inkscape:pageshadow="2"
     inkscape:window-width="1280"
     inkscape:window-height="968"
     id="namedview4"
     showgrid="false"
     inkscape:zoom="16"
     inkscape:cx="15.307024"
     inkscape:cy="15.179947"
     inkscape:window-x="0"
     inkscape:window-y="30"
     inkscape:window-maximized="1"
     inkscape:current-layer="layer1"
     fit-margin-top="0"
     fit-margin-left="0"
     fit-margin-right="0"
     fit-margin-bottom="0"
     inkscape:snap-grids="true" />
  <g
     inkscape:groupmode="layer"
     id="layer12"
     inkscape:label="Background"
     style="display:inline">
    <rect
       style="fill:#ffffff;fill-opacity:1;stroke-width:0.99610895"
       id="rect4618"
       width="32"
       height="32"
       x="0"
       y="-4.4408921e-16"
       inkscape:export-xdpi="1500"
       inkscape:export-ydpi="1500" />
  </g>
  <g
     inkscape:groupmode="layer"
     id="layer7"
     inkscape:label="Figure"
     transform="translate(0,-2.2519989)">
    <g
       inkscape:groupmode="layer"
       id="layer6"
       inkscape:label="Text">
      <path
         style="display:inline;fill:#000000;fill-opacity:0.8392157;stroke-width:0.0137424"
         d="m 15.430459,25.452692 c -0.622272,-0.0322 -0.829119,-0.146803 -1.030155,-0.570724 -0.15915,-0.3356 -0.216556,-0.54453 -0.879769,-3.201978 -0.309357,-1.239563 -0.754714,-3.011302 -0.989685,-3.937197 -0.615001,-2.423385 -0.80724,-3.197436 -0.818212,-3.294534 -0.02529,-0.223822 0.04803,-0.244734 0.691581,-0.197262 0.213705,0.01577 0.505552,0.03273 0.648551,0.03771 0.142995,0.0051 0.265279,0.01271 0.271741,0.01721 0.03046,0.02117 0.07415,0.104028 0.131094,0.248656 0.196543,0.499201 0.493503,1.669501 1.143767,4.507504 0.441173,1.925463 0.642293,2.774451 0.812236,3.428727 0.26216,1.0093 0.417935,1.427803 0.511135,1.37321 0.01278,-0.0075 0.0554,-0.07771 0.09469,-0.156031 0.13455,-0.268188 0.304534,-0.756555 0.940132,-2.701026 0.503699,-1.540957 0.85173,-2.588831 1.102388,-3.319119 1.413334,-4.117749 2.476754,-6.485952 3.300535,-7.350178 0.215875,-0.226475 0.362132,-0.318084 0.639022,-0.400257 0.37996,-0.112762 0.676143,-0.13331 1.470435,-0.102018 0.742428,0.02926 1.046707,0.01762 1.515848,-0.05793 0.158867,-0.02559 0.182517,-0.01948 0.270125,0.06979 0.04683,0.04771 0.06252,0.07687 0.07839,0.145492 0.0109,0.04721 0.01485,0.09066 0.0089,0.09658 -0.01514,0.01474 -0.41032,0.06302 -0.71878,0.08779 -0.368107,0.02958 -0.743651,0.04636 -1.243686,0.05561 -0.518659,0.0096 -0.687271,0.02298 -0.868788,0.06893 -0.377429,0.09555 -0.685097,0.350039 -0.986518,0.815988 -0.264072,0.408213 -0.74546,1.750832 -1.461413,4.075951 -0.738781,2.399263 -1.8844,6.411285 -2.222995,7.785065 -0.38753,1.57232 -0.405144,1.635535 -0.526476,1.889581 -0.173402,0.363064 -0.393231,0.511049 -0.846235,0.569663 -0.158438,0.02051 -0.761461,0.0291 -1.037739,0.01481 z"
         id="path14"
         inkscape:connector-curvature="0" />
    </g>
    <g
       inkscape:groupmode="layer"
       id="layer1"
       inkscape:label="Condor"
       style="display:inline"
       transform="translate(-865.9201,108.32601)">
      <g
         id="g12"
         transform="matrix(0.04294498,0,0,0.04294498,864.08966,-107.3684)"
         style="fill:#003d67;fill-opacity:1">
        <path
           style="fill:#003d67;fill-opacity:1;stroke-width:0.31999999"
           d="m 405.12003,730.41334 c -82.05727,-4.3691 -156.87697,-38.4675 -217.59313,-99.1662 -7.15364,-7.15155 -14.78334,-15.29232 -18.59006,-19.83526 -4.87049,-5.81242 -13.99886,-18.44167 -19.08184,-26.4 -5.26821,-8.24836 -12.12341,-20.55472 -11.87127,-21.31117 0.065,-0.19495 1.68784,1.85632 3.60634,4.55837 5.94771,8.3768 9.10741,12.34614 19.19449,24.1128 16.08981,18.76889 30.37698,32.71926 47.53545,46.41484 43.28796,34.55172 94.16809,57.13892 149.12,66.19892 36.22578,5.9726 73.05346,6.0363 108.96002,0.1887 41.71856,-6.7943 81.26109,-21.2181 118.24,-43.1302 14.76154,-8.74708 25.43981,-16.161 43.91856,-30.49268 7.6866,-5.96154 9.04916,-6.89645 11.5961,-7.95677 6.41722,-2.67149 12.08157,-1.74 15.02554,2.47098 1.23152,1.76153 1.50432,4.85552 0.65945,7.47945 -2.39238,7.43008 -10.84307,16.75293 -24.31965,26.82947 -29.5943,22.12795 -60.90089,39.02245 -94.5152,51.00465 -30.66029,10.9291 -62.33315,17.2596 -95.4048,19.0685 -6.84045,0.3741 -29.20308,0.353 -36.48,-0.034 z m -14.88,-42.7135 c -11.05799,-0.6562 -14.29741,-0.8905 -19.71882,-1.4263 -49.16465,-4.8594 -95.95368,-20.3129 -138.3612,-45.69799 -26.96852,-16.14329 -51.49893,-36.0919 -73.24428,-59.56367 -13.55852,-14.63498 -18.23502,-20.55028 -28.84022,-36.48 -9.07134,-13.62573 -12.26899,-19.3713 -17.99612,-32.33539 -3.60428,-8.15879 -3.14777,-7.76784 3.09943,2.65408 6.52342,10.88275 18.9606,28.41676 25.83202,36.41814 9.10689,10.60448 25.04822,26.23229 38.03072,37.28275 20.58138,17.51853 41.30803,31.36371 64.63845,43.17776 21.91616,11.09789 43.07994,18.91126 67.2,24.80931 18.74944,4.58477 36.11591,7.24781 58.56001,8.98001 7.03773,0.5431 36.08868,0.7462 45.20212,0.3159 42.15731,-1.9901 73.17962,-9.40663 109.19789,-26.10583 2.2,-1.01997 6.232,-2.78326 8.96,-3.9184 2.728,-1.13514 6.112,-2.54602 7.52,-3.13533 5.30935,-2.22221 10.0504,-2.89779 13.45658,-1.9175 2.50441,0.72077 5.13849,3.30563 6.23341,6.11693 1.09059,2.80022 1.06198,6.39232 -0.0703,8.8336 -0.93978,2.0262 -2.94534,4.36108 -4.89232,5.69561 -3.39078,2.32416 -13.5847,7.50352 -20.96733,10.65312 -35.10003,14.9744 -66.53411,22.4565 -105.92,25.2116 -4.77031,0.3336 -33.96951,0.666 -37.92,0.4316 z m -20.96001,-43.65683 c -43.61863,-2.38698 -84.55934,-11.33555 -120.55562,-26.35034 -19.54731,-8.15356 -36.36747,-17.43423 -55.70038,-30.73308 -56.22113,-38.67379 -86.7535,-79.1047 -96.199812,-127.38771 -1.75637,-8.97734 -3.79132,-23.8665 -4.8765,-35.68 -0.72069,-7.84554 -0.82319,-30.37075 -0.16892,-37.12 2.24288,-23.1368 7.85893,-42.62736 18.348892,-63.68 7.65553,-15.36416 15.13493,-26.91738 28.79574,-44.48 10.26294,-13.19425 17.81696,-22.0683 27.47526,-32.27642 40.71977,-43.03786 93.09289,-73.67802 157.12133,-91.92161 42.02104,-11.97303 82.98706,-17.74722 121.60002,-17.13961 26.18054,0.41198 46.98448,3.0524 70.24,8.91482 23.9376,6.03435 43.84647,14.14723 68.03527,27.72439 7.29437,4.09432 12.22486,6.26992 21.06633,9.29559 5.28119,1.80728 5.38602,1.86197 15.06829,7.85927 12.59658,7.80246 17.5833,11.06416 18.67466,12.21461 2.21053,2.33027 4.03037,7.4349 4.78077,13.40999 0.21123,1.68184 0.52592,3.07471 0.69936,3.09527 0.53753,0.0637 3.58784,-6.12168 4.76976,-9.67209 2.83888,-8.52774 2.69097,-16.33978 -0.45821,-24.20454 -5.07539,-12.6752 -19.10621,-25.11611 -38.3816,-34.03243 -2.54397,-1.17678 -4.67197,-2.27932 -4.7289,-2.4501 -0.0569,-0.17078 0.51248,-0.4927 1.26538,-0.71538 2.96806,-0.87785 6.43737,-2.99873 8.92438,-5.45569 2.9144,-2.87923 4.25283,-5.1145 4.95943,-8.28259 1.01939,-4.57059 0.0355,-7.30607 -3.71492,-10.32902 -3.0847,-2.48635 -9.7608,-5.12435 -17.6,-6.95451 -9.86179,-2.30236 -12.2983,-3.15246 -19.86109,-6.9296 -6.41392,-3.20334 -12.06556,-6.56254 -26.48931,-15.744487 -13.09993,-8.33926 -20.35405,-12.64334 -25.3296,-15.02886 -12.83754,-6.15493 -20.24874,-6.7264 -27.27165,-2.10287 -7.86739,5.17947 -12.33571,14.62632 -13.43587,28.405867 -0.19674,2.464 -0.46406,4.60285 -0.59411,4.75301 -0.13002,0.15016 -2.44634,-0.0267 -5.1474,-0.39298 -23.09507,-3.13198 -48.23728,-3.89831 -69.07097,-2.10528 -35.83809,3.08436 -67.31144,12.69761 -93.56576,28.5788 -11.6921,7.07253 -23.4952,16.44169 -29.63426,23.52332 -1.83255,2.11392 -2.34648,2.50217 -4.32,3.26361 -8.18582,3.15828 -14.62436,5.74601 -18.08,7.26655 -12.28549,5.40583 -23.14817,11.46415 -31.15289,17.37452 -1.7831,1.31657 -3.29347,2.23938 -3.35637,2.05069 -0.2304,-0.69121 6.75178,-11.22477 12.61555,-19.03224 24.6246,-32.78713 56.02115,-55.48773 93.73371,-67.77213 15.36509,-5.004997 33.32513,-8.603797 52.96002,-10.612047 18.46572,-1.88868 50.15344,-1.1825 77.76,1.73291 4.2383,0.44759 5.68992,0.50141 5.96973,0.22133 0.20336,-0.20353 0.82547,-1.80733 1.38246,-3.56399 1.63235,-5.14809 3.16883,-9.04586 5.0481,-12.80607 4.77846,-9.56121 9.11341,-13.24407 18.31971,-15.56404 6.9665,-1.75553 12.40653,-1.3912 20.40426,1.36654 9.39974,3.24117 20.37779,9.21909 35.11574,19.12173 4.048,2.71991 11.03664,7.41665 15.53034,10.43722 12.22112,8.214767 20.28003,12.876287 26.30205,15.213897 1.45619,0.56525 5.31161,1.56894 8.56761,2.23042 3.256,0.66147 7.18535,1.66633 8.73191,2.23302 6.82825,2.50203 11.54985,7.2612 12.74841,12.84981 0.8712,4.06233 -0.49814,12.57775 -2.69043,16.73053 -0.56352,1.06747 -1.92579,2.87141 -3.02723,4.00875 -1.10147,1.13734 -2.00266,2.10595 -2.00266,2.15248 0,0.0465 1.764,0.94719 3.92,2.00146 8.32736,4.07202 13.95258,7.97453 19.62637,13.6158 7.70493,7.66076 11.81082,15.42215 13.45741,25.43858 0.65594,3.99003 0.42391,12.04198 -0.46579,16.1638 -1.87078,8.66716 -5.90272,16.46948 -11.53411,22.32 -2.83671,2.94709 -3.69053,3.35022 -4.20877,1.98715 -0.23501,-0.61812 -1.65343,-14.31463 -2.2351,-15.08885 -7.13114,-9.49175 0,0 -7.13114,-9.49175 -0.0647,-0.19418 -2.81901,-1.75827 -6.12061,-3.47575 -3.3016,-1.71748 -7.61059,-4.23318 -9.57558,-5.59045 -6.56269,-4.53307 -7.07642,-4.83735 -10.45268,-6.19109 -1.848,-0.74096 -6.744,-2.46716 -10.88,-3.83599 -5.98534,-1.98088 -9.25056,-3.30371 -16,-6.48207 -14.03949,-6.61127 -26.24848,-11.77446 -39.48144,-16.69672 -18.70736,-6.95855 -38.65386,-10.79626 -64.83856,-12.47493 -19.82688,-1.27107 -38.62179,-1.4067 -49.6,-0.35792 -48.26279,4.61069 -104.87614,21.0732 -149.81669,43.56498 -36.1698,18.10221 -70.72326,45.82374 -98.70287,79.18731 -15.08293,17.98526 -27.91529,37.19947 -37.71128,56.46605 -12.39729,24.38275 -18.05291,43.75213 -19.71501,67.52 -0.46435,6.64013 -0.21324,20.66192 0.49572,27.68 2.61056,25.84259 11.42841,54.90262 21.96347,72.38265 7.78625,12.91914 17.84955,25.2593 32.57625,39.94675 18.74842,18.69847 32.81189,29.57466 53.47039,41.35216 25.36522,14.46084 54.83371,26.24346 83.84,33.52244 12.94528,3.24857 24.58048,4.93209 43.52,6.29695 6.44625,0.46458 12.13505,0.56628 32.00002,0.57204 24.07708,0.007 31.0256,-0.19408 45.28,-1.31028 10.28838,-0.8056 12.77805,-0.88179 14.93705,-0.45702 6.29805,1.23907 9.21735,5.61798 8.2728,12.40912 -0.4534,3.25981 -1.58195,5.26685 -3.93792,7.0032 -4.43008,3.26499 -10.68963,4.49936 -27.43193,5.4095 -5.016,0.27268 -10.776,0.64423 -12.8,0.82567 -4.77805,0.42832 -33.90314,0.62909 -40.32001,0.27795 z M 574.33635,147.11434 c -2.40809,-0.76997 -4.24182,-2.14941 -6.09593,-4.5857 -2.75655,-3.62209 -4.5249,-9.41033 -3.4745,-11.373 1.26042,-2.35513 7.41462,-1.07405 15.39411,3.20449 3.35347,1.7981 10.24202,6.01618 12.45965,7.62943 l 1.41965,1.03275 -0.82694,0.71131 c -1.08048,0.92938 -5.10871,2.59517 -8.1674,3.37745 -3.19821,0.81796 -8.156,0.81948 -10.70864,0.003 z"
           id="path24"
           inkscape:connector-curvature="0"
           sodipodi:nodetypes="ccccccsssccsccscccccccsscccccsscccsccccsccccccssssssssssscscccccscccccsccsccccssccsscssssccccsssccccccsssccssccsccssssssssscsssccsccccsscccscccccscc" />
      </g>
    </g>
  </g>
</svg>
